# xmcd
#
# Track frame offsets:
#	150
#	8275
#	16731
#	29703
#	41566
#	61490
#	89619
#	101259
#	132371
#	145089
#	156606
#	168393
#	193559
#	210900
#	220410
#	243202
#
# Disc length: 3353
#
# Revision: 5
# Processed by: cddbd v1.5.1PL0 Copyright (c) Steve Scherf et al.
# Submitted via: CDmax 1.8
# Normalized: r4:DSETVAR1
#
DISCID=d40d1710
DTITLE=Various Artist - Last of the Mohicans
DYEAR=1900
DGENRE=Soundtrack
TTITLE0=Trevor Jones - Main Title
TTITLE1=Trevor Jones - Elk Hunt
TTITLE2=Trevor Jones - The Kiss
TTITLE3=Trevor Jones - The Glade Part II
TTITLE4=Trevor Jones - Fort Battle
TTITLE5=Trevor Jones - Promentory
TTITLE6=Trevor Jones - Monro's Office-Stockade
TTITLE7=Trevor Jones - Massacre-Canoes
TTITLE8=Trevor Jones - Top Of The World
TTITLE9=Randy Edelman - The Courier
TTITLE10=Randy Edelman - Cora
TTITLE11=Randy Edelman - River Walk And Discovery
TTITLE12=Randy Edelman - Parlay
TTITLE13=Randy Edelman - The British Arrival
TTITLE14=Randy Edelman - Pieces Of A Story
TTITLE15=Clannad - I Will Find You
EXTD=
EXTT0=
EXTT1=
EXTT2=
EXTT3=
EXTT4=
EXTT5=
EXTT6=
EXTT7=
EXTT8=
EXTT9=
EXTT10=
EXTT11=
EXTT12=
EXTT13=
EXTT14=
EXTT15=
PLAYORDER=
